<?xml version="1.0" encoding="utf8" standalone="no"?>
<svg viewBox="0 0 111 120" xmlns="http://www.w3.org/2000/svg">
<defs>
<radialGradient cx="17.3125" cy="25.53125" gradientTransform="matrix(2.18291,0,0,.76754,51.068,-12.9562)" gradientUnits="userSpaceOnUse" id="radialGradient9250" r="9.6875">
<stop offset="0"/>
<stop offset="1" stop-opacity="0"/>
</radialGradient>
</defs>
<g transform="matrix(2.23832,0,0,2.23832,-143.762,85.646)">
<path d="m110.00667,6.64005c0,4.10654-9.46782,7.43554-21.14696,7.43554s-21.14696-3.32901-21.14696-7.43554 9.46782-7.43554 21.14696-7.43554 21.14696,3.32901 21.14696,7.43554z" fill="url(#radialGradient9250)" opacity=".40909"/>
<path d="m110.30083-14.20761c0,11.482-9.309,20.79-20.79,20.79s-20.791-9.308-20.791-20.79 9.308-20.79 20.791-20.79 20.79,9.308 20.79,20.79z" fill="#fff" stroke="#000" stroke-linecap="round" stroke-linejoin="round" stroke-width=".9821"/>
<path d="m109.60205-14.23959c0,11.111-9.007,20.118-20.118,20.118s-20.118-9.008-20.118-20.118 9.007-20.118 20.118-20.118 20.118,9.007 20.118,20.118z" fill="none" stroke="#fff" stroke-linecap="round" stroke-linejoin="round" stroke-width=".9821"/>
<path d="m89.10001-25.5501c5.989,0 10.85,4.861 10.85,10.85s-4.861,10.85-10.85,10.85c-5.178,0-9.512-3.629-10.592-8.482h5.166c.914,2.09 3,3.551 5.426,3.551 3.267,0 5.917-2.651 5.917-5.918s-2.651-5.918-5.917-5.918c-2.349,0-4.377,1.37-5.333,3.354h-5.209c1.152-4.755 5.435-8.287 10.542-8.287z"/>
<path d="m89.46276-33.55045c-10.671,0-19.333,8.662-19.333,19.333s8.662,19.333 19.333,19.333 19.334-8.661 19.334-19.333-8.662-19.333-19.334-19.333zm0,3.945c8.494,0 15.389,6.894 15.389,15.388s-6.895,15.387-15.389,15.387-15.387-6.893-15.387-15.387 6.893-15.388 15.387-15.388z"/>
<path d="m109.20316-14.52638c0,10.832-6.053-4.306-18.675.387-12.722,4.729-20.566,10.444-20.566-.387s8.79-19.621 19.621-19.621 19.62,8.79 19.62,19.621z" fill="#fffdff" fill-opacity=".24314"/>
</g>
</svg>
